<svg xmlns="http://www.w3.org/2000/svg" width="100" height="8"><defs><clipPath id="a"><path fill="none" d="M0 0h100v8H0z"/></clipPath></defs><g fill="none" stroke="#120048" stroke-linecap="round" stroke-linejoin="round" stroke-width=".09" clip-path="url(#a)"><path d="M46.44 57.19c-1-2.4-1.88-5.84.66-4.06.18.89.04 3.32.89 3.54.56.35 1.41-2.23 1.76-3.06 6.31-16.68-5.73-2.75-2.02-9.56.63-1.1 1.6-.43 2.36.29 3.29 1.33 7.03.96 11.04.81 3.16 1.1 4.09.58 7.13-.2 1.4.61 3.08.13 4.68-1.02 2.81-.41 3.81 0 5.23-1.28 3.19-.66 3.11 1.61 4.48 2.24 4.99-1.21 11.54-1.47 8.68-7.8-3.75-5.91-.32-6.91-1.22-9.54-.47-6.98-2.49-6-1-9.9 1.13-2.89 2.96 3.92 4.45-3.52 1.14-2.07 2.67-1.52 4.81-2.37 5.83-6.9 3.73-2.34 6.91-4.5"/><path d="M45.48 57.19c-3.2-6.55-1.86-2.68-1.47-7.56-1.62-.98-4.88-2.8-6.48-1.6-4.78-.13.66-1.38 1.27-2.07.19-1.12-1.66-.88.06-2.69 1.89-2.27 1.62-1.67 3.23-.45 1.67.73 4.39-.32 5.53-1.33 7.04 4.07 9.14 2.76 14.51 2.94 3.98 1.37 4.05.07 5.97-.31 3.03.61 2.79.02 5.04-1.21 8.33-3.11 8.98.5 9.64 1.1 4.38-.99 7.91-.08 8.8-3.83-.61-5.92-4.08-4.29-1.97-11.02-4.43-13.41-1.58-5.23-1.79-12.56.19-1.9 4.66-2.11 6.19-4.35 5.06-7.19 8.02-4.04 9.86-7.23.18-.33.43-.42 1.42-.44"/><path d="M105.28-.93c-.73-3.38-3.85-2.92 0-4.78m-60.33 62.9c-2.61-4.74-2.11-3.97-2.22-6.44-1.75-3.43-11.86-.75-12.42-3.22 7.03-3.86 6.59-5.52 8.68-9.46 3.89-4.84-1.39 5.88 7.2.94 9 7.69 10.91 3.44 18.15 5.4 7.86-.74 11.23-3.4 13.03-3.16 4.21-.79 6.05 2.43 10.79 1.67 5.88-1.37 1.53-7.04.42-8.13.79-9.34.1-4.82-1.85-9.93-2.4-4.84 2.78-8.09-3.01-7.04-4.11.65-7.6.73-.43-2.82 4.55.62 4.71-.93 6.81-1.46 2.37-.76 4.61-4.28 6.89-6.54 5.19-2.38 5.23-3.78 8.28-3.79M96.63 3.66c1.09 2.45-2.71 1.65-2.57.6.55-1.34 2.28-2.49 2.57-.6"/><path d="M44.42 57.19c-3.73-6.07-.69-7.39-7.15-7.6-4.66-.39-7.35 1.29-10.34 2.44-.72 1.3-5.24 1.36-3.64-1.9.12-1.45-2.03-1.16-.48-2.06 3.8-1.46 3.35 1.24 8.95-3.1 7.04-4.81 3.51-5.03 5.77-7.73 7.63-5.4 1.18-7.92 3.74-11.67 4.88 1.27 13.07-3.98 11.67.12-.39.96-1.32 2.19-1.96 3.26-.6 1.27-.97 1.22-2.87 1.64-2.07 1.44-1.14 5.9-.69 7.5 3.01 7.59 13.08 4.18 17.61 5.91 4.19-.84 9.62-2.85 13.9-3.36 4.75.16 9.28 4.29 11.83-.11.54-2.24-1.82-4.47-2.6-5.87 1.32-8.02-2.62-8.87-4.14-12 1.82-7.33-7.68-1.36-8.08-3.15-.43-1.95 5.72-3.82 6.7-5.44 1.98-.52 2.84.63 5.06-.53 3.25-2.22 7.93-4.4 7.39-6.9-.28-1.18-2.67-.22-3.99-1.45-.74-1.92 3.11-2.73 2.02-5.29.03-.75-.14-.74.5-1.28 4.19-1.57 1.43 3.21 4.85 3.37 1.73.59 4.45 1.24 5.09.33 3.47-4.37-6.89-6.99.88-8.69.43-.19.66-.57.83-1.34"/><path d="M15 57.19c.83-1.53 3.2-2.16 4.31-3.05 1.96-2.65 4.46-5.07-.75-4.38-.63-.1-.19-.49.62-.97 3.85-2.47 6.68-1.46 8.17-2.1 8.83-6.94 7.37-4.06 7.79-8.62 2.04-3.61 7.71-4.85 4.13-9.26-3.72.27-2.12-.48-5-1.14-3.06-2.89 4.49.91 4.88-.62 1.34-1.47-3.35-2.54-.82-3.22 2.04-.31 2.84-.48 4.71.28 2.87 1.28 4.59-.28 7.2-.83 3.1.35 5.44-.94 6.52-.29 1.54 1.58-2.06.98-2.97 2.62-3.88 7.19-10.7 11.14-2.29 16.12 15.41 5.08 27.04-4.6 33.93-.05 6.73 1.73 5.49-3.52 2.33-6.84 1.13-6.72-1.87-7.6-5.05-12.93-.52-1.37-.41-2.09-1.23-2.08-2.54.19-.89 1.92-2.77 2.33-2.11.37-3.53-.64-5.48-.51-1.82.88-6.83.69-3.63-1.16 1.38-.68 3.4.85 3.95-.5 1.03-3.03 6.19-4.04 7.68-5.49 2.76-3.68 5.26 1.08 8.63-4.38 1.07-.78 2.33.15 3.55-2.14.6-2.02-4.89-.72-4.58-3.05-.22-2.23 1.65-2.32 2.6-3.38.47-7.08 6.53-6.18 7-3.52 3.02 6.66 6.56 1.75 1.37-1.84.18-1.86 4.58-3.56 5.46-6.17m-61.4 67.17c-2.44-4.15-1.85-6.17-3.63-6.53-7-1.94-9.77.96-13.17 2.63-3.21 1.45-6.54 2.09-9.24 3.9"/><path d="M13.97 57.19c1.25-1.25.75-1.2 3.24-3.1 6.25-5.25-2.67-2.52-.8-4.22 3.26-3.01 9.45-3.36 11.14-4.43 4.7-4.29 6.6-4.82 6.03-6.88-.07-2.86 7.27-5.2 5.71-8.09-2.37-1.06-12.31-2.99-7.21-6.6 2.46-.23 5.05-.39 6.41-1.43 3.36-.69 5.34 1.08 7.23.97 8.44-1.41 7.81-.77 11.4-3.24 4.22-.63-1.13 1.36 3.01 3.33.26.31.24.52.2.86-1.15 2.06-5.38-.14-6.42 1.84-1.68 1.52-.59 3.43-2.59 5.04C37.78 45.35 68.8 43.78 76.1 40.42c5.59-2.12 17.97 5.37 12.17-4.31-1.84-1.02-.23-3.52-.94-4.95-2.06-5.07-4.52-11.38-9.69-7.39-1.56 1.05-2.61.32-4.95-.3-2.57-.51-3.81.64-5.9-1.03-1.44-2.86 4.23-3.66 5.66-3.86 3.04-4.42 7.27-2.04 9.55-6.74 1.48-.41 4.92 1.32 6.43-1.46 2.37-3.17-2.51-5.52-.09-8.12.75-.72 2-1.07 2.42-2.77C96-13.17 94.28 2.18 105.25-10.7M43.16 57.19c-2.72-13.59-15.99-3.22-23.21 0"/><path d="M-3.64 57.19C.35 51.95.56 51.9.84 52.47c.58 1.67 4.88-1.5 7.24-2.06 4.66 2.09 9.4-2.29 13.79-3.99 5.69-1.15 8.69-4.22 10.97-9.07 8.89-9.09 4.98-3.83-8.32-13.22-4.02-2.37 1.39-1.73 3.63-1.15 2.05 0 5.34-.4 8.06-.36 1.17-.66 1.78-2.46 2.97-1.89 5.22 1.52 6.61 2.32 10.69.39 1.93.04 2.79.51 4.47-.39 1.6-.84 2.29-3.36 5.03-3.25 6.37 1.59 1.28 2.83 2.18 6.85-1.68 4.54-5.52-.42-7.65 2.4-1.55 3.46.45 3.29-2.98 5.67-5.55 4.99-1.24 8.49 4.63 9.92 2.4.19 6.66-.44 9.04.09 6.76-.52 14.3-3.94 20.94-2.17 5.31 1.56 2.78-3.4 1.31-5.73.78-3.03-.46-4.04-1.88-6.15-.19-1.85-.39-1.64-1.63-3.66-2.77-4.77-6.47 2.05-8.46 1.17-5.27-1.88-4.66 1.25-8.88-2.32-2.77-4.01 1.24-5.36 3.64-6.59 1.17-.94 1.33-1.95 2.99-2.35 4.35-1.94 6.47-.15 7.3-1.49 3.32-6.71 3.68-.48 7.25-2.63 2.37-2.94-2.63-5.85.17-9.31C88.4.27 89.87.4 90.22-1.16c2.7-12.21 5.28 1.41 15.07-10.09M12.74 57.19c8.87-6.97 4.26-7.3-2.61-3.7-3.21-.18-5.26 2.01-7.19 3.7m39.62 0c-2.05-13.13-15.37-2.65-21.86 0"/><path d="M-4.04 57.19c3.64-4.92 4.73-6 5.17-5.81 1.31 1.62 3.8.31 6.33-1.08 3.73.73 6.3-.07 8.92-1.43 8.63-5.17 11.3-4.23 14.47-10.57 1.55-2.99 5.12-4.5 5.04-6.27-.92-2.13-3.66-1.6-4.71-2.95-7.46-4.87-11.55-4.5-16.73-2.47-2.77.61-2.77-1.09-2.2-2.59 2.65-4.86-1.82-4.95-2.29-3.28 1.01 4.57-1.87 1.6-1.09 5.25.39 1.18-4.41 1.28-3.64-.8 4.7-4.83 1-3.67 2.99-6.65 2.03-2.88 2.3-1.02 5.06-2.79 2.37-1.53 3.34.28 5.32 1.76 1.12.83 2.49.58 3.47 1.84 3.07 4.22 13.4 3.13 14.08 1.69.83-1.47.82-1.11 2.24-1.32 14.09 3.57 6.92.02 12.52-1.95 6.02 3.57 2.14-.47 7.1-1.48 4.16.12 3.93 2.24 6.84-.17 4.49-.76 1.64-1.73 4.09-2.98 3.78-.3 3.06.97 6.13-.81 3.35-.97 5.71 1.35 4.81-3.31.89-1.76 2.02-.06 3.86-2.22 4.27-4.56-.58-6.35 5.49-7.98 3.05-13.66 4.73 1.21 16.06-10.44M11.01 57.19c6.48-3.29 7.87-8.05-.46-3.36-3.76-.06-4.82 1.43-7.04 3.36m38.66 0c-2.34-13.02-15.05-1.87-20.66 0"/><path d="M86.77 7.96c-1.4-1.42-2.02-.38-2.26.73 1.03 1.91 2.35.42 2.26-.73M-4.36 57.19c3.42-4.16 4.67-6.99 6.19-5.93 1.62 1.51 4.21-.63 5.92-1.29 6.27 1.59 9.59-2.61 14.99-5.49 5.34-1.78 5.18-5.1 8.64-8.06.67-.49-.55-1.62.43-2.79 4.84-3.1-8.11-6.76-8.82-7.22-5.02-.68-9.3 2.39-11.39.95-4.37-.1-10.56 4.05-9.47-.39.88-1.74 2.12-3.9 2.1-5.57 1.52-2.07.02-2.88 1.97-4.35 7.39-9.83 10.04-3.91 16.42 2.05 3.71 3.29 9.63 3.34 12.46 1.52.83-.57 1.03-2.44 2.25-2.05 2.82 1.03 4.35.68 5.09.92 7.37 3.88 4.24-6.19 10.17-2.29 1.04.9 2.75-1.44 3.82-1.77 8.72-.28 3.56.15 8.97-2.99 5.5-1.66 5.05.13 8.17-.59C85.93 6.41 83.83-.78 88.27-2.65c1.25-.47 2.13-4.56 1.17-5.66.35-.59.76-.63 1.64-.34 8.96 4.09 12.03-2.36 14.17-3.38m-63.4 69.22c-2.16-11.78-13.28-2.85-18.89 0"/><path d="M-4.6 57.19c5.49-7.55 5.77-6.74 6.82-5.98 1.47.89 1.95.19 5.69-1.42 2.86.68 2.67.43 5.62-.42 4.35-1.89 8.52-5.48 12.27-7.19 3.89-5.08 8.56-11.52-.26-13.93-6.25-2.25-6.51.14-10.44.43-4.07.02-9.48-1.8-9.17 3.61-1.92-5.03-10.72 3.27-7.83-2.04 3.39-3.24 3.02-7.07 3.88-11.27-.19-.71.32-1.14.88-1.58 5.09-2.92 2.52-5.01 4.75-7.74 2.12-2.44 2.1-.92 4.18-.57 7.89.65 9.88 12.96 17.86 12.16 9.07-.27 2.33-4.72 7.58-3.53 12.02 3.2 8.97-.46 11.68-2.09 1.43-.76 2.88.31 4.44-.07 5.99-2.45 7.21-1.3 8.33-3.35 1.54-2.19 13.09-.24 18.04-4.75 3.38-4.11-.2-2.2 4.49-5.94 4.16-9.1 6.08-3.81 4.19-11.38 1.43-3.26 6.89 8.01 16.87-2.56M41.55 57.19c-1.87-10.41-12.66-3.9-17.01 0"/><path d="M25.03 57.19c10.54-9.51 15.88-4.31 16.25 0m64-69.92C93.3-1.09 89.45-15.77 87.42-11.58c-.36 2.83 2.25 5.3.48 6.68-3.2.15-2.08 3.43-4.28 5.63-4.56 3.67-1.5 5.31-5.77 7.28-4.17.85-7.93 2.29-13.01 1.66-4.65-.42-7.38 5.25-13.5 4.96-1.43.32-2.49-.13-3.56 1.09-3.95 5.36-8.88.46-13.63 1.01-2.55.03.95 2.91-1.43 3.51-11.14 2.21-8.8-5.41-14.5-9.33-4.88-4.49-9.25-4.37-13.55-5.63C1.36 4.47.89 7.71 3.56 9.42c1.18 1.37.84 3.67-.08 5.82-4.91 4.31-4.85 1.24-4.14 7.95-.04 1.14-1.2 1.2-1.84 2.08.22 4.39.17 2.43-1.84 4.17-2.61 3.44-1.6 1.56-3.76 1.68-2.68 6.52-2.64 5.8.87 5.13.25.02.31.19.26.51-1.79 3.65.69 5.35 2.23 4.75 2.21-1.1 1.29-4.83 2.09-5.96 1.34-2.08 5.17-4.75 6.85-3.09.74 1.11.17 3.01 2.52 1.99 3.04-1.67 3.13-4.03 4.07-4.85 6.07-.64 5.76 1.36 8.4-.91 2.72-1.4 6.65.66 8.01 1.22 4.73 1.81.18 8.64-1.64 11.48-3.76 2.64-7.38 4.67-11.19 7.22-2.25 1.19-4.01 1.4-6.77 1.11-3.64 1.75-4.52 1.92-6.38.87-.76-.36-1.01.22-5.99 6.61"/><path d="M25.61 57.19c9.8-9.54 15.34-3.31 15.41 0m64.26-70.33c-12.43 11.38-13.69-1.87-18.56-.45-.8 0-.5.64-.38 1.63 2.51 6.93.53 5.52-.71 7.08-.98 2.12-2.18 3.93-4.86 7.5-1.46 5.17-1.52 4.65-8.08 5.25-6.13 1.5-6.38 1.24-11.14.47-7.36 5.88-5.66 4.93-13.3 6.39-6.47 6.24-11.18-.78-16.68 1.55-.33.26 1 2.67.14 3.16-2.43 1.37-4.15.87-7.32-.97-2.1-1.7-.06-4.25-2.4-5.94-3.84-1.79-5.47-5.32-10.72-6.71C6.16 4.1 5.49 1.3-1.32 2.53c-.61.05-.78.23-.99 1C-3.57 6.9.03 7.21 1.73 9.36c2.68 3.01.93 6.59-1.18 6.97-1.62.6-3.52.87-4.33 2.73-1.12 5.56 1.87 8.92-4.52 10.61-2.28 1.23-1.11 2.49-1.66 4.52-.55 1.31-1.78 2.24-1.03 2.9.69.59 3.03.21 2.74 1.5-.92 3.82 1.98 5.74 3.74 3.7 2.47-1.93 3.83-10.21 7.45-8.15.59 1.09 1.17 1.7 2.43 1.66 4.3-.62 5.29-5.13 7.25-5.47 5.88.18 2.24 2.19 7.5-.88 11.8-1.16 8.19 7.7 3.5 12.62-7.55 3.92-8.24 6.63-13.73 7.58-4.13-1.15-4.13 2.58-7.7.96-2.79-1.58-5.62 5.35-7.24 6.57"/><path d="M-5.2 57.19c6.65-8.81 5.22-6.97 9.18-6.41 1.46.08 1.86-1.08 4.12-1.63 1.9.55 4.18-.22 6.12-1.59 3.85-3.23 4.02-2.91 8.44-5.72 1.03-3.08 2.93-3.84 3.48-6.84 2.17-5.37-2.45-4.68-5.94-4.7-2.71 1.64-3.26 1.98-4.83 1.29-5.6-2.62-4.94 7.92-13.33 4.31-.65.13-1.28.72-2.05 1.58-3.16 4.98-9.73 12.15-9.7 3.78 1.37-3.75-.15-2.85-2.29-3.29-1.25-.5.12-1.82 1.05-3.32 1.3-2.21-.41-1.79-.06-3.3 4.68-10.74 6.31-4.81 4-11.13.21-3.55 5.47-3.71 8.42-5.36 1.56-9.69-6.74-4.82-5.26-11.95.27-1.41-.63-3.15-1-3.67C-3.55-5.78-.56.48 1.54.89c5.54.45 9.51 3.9 14.09 5.65 2.06 1.69 3.58 3.5 6.02 3.64 4.5 5.93 2.51 2.96 2.61 7.1 1.19 2.15 5.78 3.09 6.24.92.32-1.38-1.98-2.21-2.59-3.33-.19-2.37 2.25-.9 3.35-.3 11.4 2.58 11.31 2.77 17.98-.58 6.89-.88 8.45-2.87 9.23-5.87 1.24-2.76 5.44-.18 7.49-.36 3.02.16 4.92-.92 7.9-.76 2.81.02 6.66-.56 5.36-3.23-.83-.25-1.83-.42-.55-1.08 2.67-.98 2.67-2.69 3.46-4.55 2.14-2.25 6.32-5.2 3.89-9.3-3.05-5.35 1.36-4.49 4.56-1.67 4.82 6.9 10.72 3.33 14.7-.82M40.76 57.19c-2.54-8.41-11.15-4.02-14.75 0"/><path d="M-5.39 57.19c2.49-2.59 5.07-8.08 7.42-7.07 2.46 1.23 3.98-.54 6.06-1.21 2.21.48 4.47-.93 5.72-1.8 3.1-2.57 4.66-3.64 7.84-5.59 1.44-4.75 3.05-1.84 2.36-6.27-.36-1.86 2.48-2.38.85-4.01-5.67-1.13-6.08 1.71-8.32 1.41-1.77-.1-3.35-1.78-4.62-.03-4.32 6.88-8.76 3.96-10.46 5.25-13.02 15.96-13.8 4.06-11.97 2.31 1.32-2.68-6.42.43-1.74-4.85.56-.89.63-1.36.58-1.83-4.54-4.06 2.78-2.05-.33-6.36-.57-1.84 1.71.49 2.99-2.24.54-.84.68-1.26.46-1.85-4.8-5.7 5.53-6.79 8.45-9.03 1.75-8.51-4.81-4.18-4.97-7.58 2.91-10.33-7.82-3.87-.88-10.53 3.57-3.28 4.28 2.61 7.21 3.97 13.07 1.87 9.42 6 14.59 4.18.71.06.73-.02 1.57.55 2.85 6.19 1.91 1.53 4.52 4.13 3.22 6.28 3.95 2.49 7.69 3.98 4.64 2.76 14.91 4.9 18.41 1.07 5.39-.72 9.62-2.85 9.24-5.92-.19-4 6.77-1.04 10.89-1.1 2.48-.24 11.12-.72 9.03-2.39-2.37-2.07.87-1.94 2.16-2.83 1.77-.96 1.05-2.21 2.52-4.3 7.34-6.5 2.43-8.88.8-14.41.55-2.36 6.96 2.61 8.26 4.18 4 6.11 10.82 3.5 14.34-1.43m-64.73 71.6c-2.74-7.6-10.63-4.16-14.15 0"/><path d="M51.46-62.43c-2.9 1.15-2.8 2.51-3.39 1.96-1.27-3.55-5.76-.14-3.62 1.75 2.98 3.79-1.95 7.91-3.43 10.93-1.56 2.53-3.13 6.11-4.54 7.42-.57.97.13 2.4-.85 3.09-3.41 2.64-3.91-1.02-6.72-1.1-1.57-.8-2.46 2.63-4.04-.22-1.13-3.9 1.29-1.06 2.75-3.84 1.02-2.11 0-7.6-3.63-5.5-2.52 2.53-3.68-1.3-5.47 1.57-.38.49-1.02.4-1.88.71-6.93 1.37-3.19-.45-6.1 2.11-2.78-.61-2.22 2.8-3.7.85-.52-1.07-.1-1.23-1.34-1.67-1.06-.62-1.08-1.6-1.28-2.63-4-12.33-20.49-4.54-24.39-15.44m84.79 0c-2.2 4.11-4.19 2.94-6.3 0m46.96 46.98c-2.57 5.44-9.77 7.1-12.77 3.89-.41-1.33-11.97-12.37-11.38-6.87.1 1.65 1.01 1.86 1.67 3.35.23 3.17 1.48 5 1.29 5.29-.4.41-.92 1.43-.79 2.15.68 4.64-2.76 3.55-3.48 8.01-1.13 2.2-4.64.53-4.14 3.57-.01.46-.18.81-.68 1.12-6.6 2.68-11.17-1.35-17.51-.33-3.59.89 2.65 5.16-5.03 6.7-2.93 3.22-3.45.35-6.36 3.22-.47.31-.6.3-1.18.36-6.8 1.27-11.47-1.38-16.52-3.31-6.41.3-6.27-7.4-11.9-8.68-5.86.81-3.74-2-8.97-2.47C3.99-1.06 3.79.13 1.52-.8-1.09-2.25-2.36-5.49-.6-7.05c3.34-3.84 4.04 1.91 5.6 1 4.61-10.9 16.18-1.82 25.59-10.92 1.2-1.2 1.48-2.06 2.56-2.46 3.11-.28 6.42-3.79 9.39-6.79 5.79-4.42 8.13-4.17 10.59-9.5 5.17-4.34 6.79-6.64 8.69-11.22 5.47-6.15 13.64-11.39 7.05-15.49"/><path d="M26.78 57.19c7.41-8.32 13.26-2.21 13.53 0M-91.89-56.39c6.78.54.78 5.84 17.68 4.07 1.75.38 3.52 1.17 6.44.83 4.94 2.59 7.2-.7 10.75 2.24 2.8-3.91 5.63-3.5 8.92-5.13 1.68-1.6 3.09-4.41 5.69-2.34 2.62 4.13-5.14.63.65 7.4 3.58 1.43 4.31-2.08 6.13-1.06 5.27 2.98 7.1-1.14 8.47 1.63.25 2.82-2.63-.35-3.65 1.42-1.3 4.7 5.11.75 4.01 9.23 0 .65.52 3.31.87 3.86 8.72 3.45 6.2-2.39 6.43 6.18 1.6 2.55 4.72.03 6.16.08 2.22 1.62 3.72 1.56 4.32 1.49 3.76 3.18-.18 4.5-1.14 6.48-.89 1.95 3.21 5.47 4.93 3.51-.17-1.02-.09-2.77 1.07-2.04.56.38.92.95.81 1.57-1.14 4.45 3.98 6.03-1.39 9.43-3.31.43-2.5-.39-3.31 2.92C-13.62-2.17-11.1-.07-7 .78c4.42 2.67-4.5 1.64-3.9 2.51.07.73 1.34.63 2.15.66 5.99-.12-.98 4.78 5.02 4.88 5.76-.41-1 7.18-2.59 7.3-4.34 2.11-9.23.07-9.11 2.37 5.62 4.77-.44 4.53 2.37 9.16-.39 3.84-4.03 4.42.42 6.77-4.33 5.59-1.97 3 .7 5.97-.21 1.44-2.63 2.64-1.39 3.37 1.99.74 2.69 3.4 3.41 3.65 3.53-.08 6.55-4.09 9.84-6.17 2.35-2.74 3.27-3.05 5.89-3.13 4.4-1.22 6.84-5.24 7.1-5.39 2.21-.01 4.17 1.29 8.1-.5 7.64 4.34-6.04 13.23-9.83 15.78-4.44.74-5.74 2.93-9.29 1.88-2.56-.9-5.97 6.05-7.44 7.28"/><path d="M43.11-62.43c-2.09 2.21 1.42 4.2 1.2 6.39-10.81 20.93-9.5 13.15-9.98 18.16-.84 1.23-3.96-1.8-5.24-1.96.39-6.69-.26-7.31-1.68-9.6-.34-2.31 4.69-5.39 1.43-7.96-4.72-1.19-7.73.99-5.28 4.95 6.41 3.66-2.58 3.77-4.32 3.39-.63 0-1.81.02-2.23.37-3.78 5.69-4.19.13-9.63 2.74-1.3-.1-2.16-1.21-2.87-2.56-5.34-11.42-20.42-2.8-24.43-13.92m125.2 46.18c-3.03 6.77-10.52 6.74-12.53 4.45-4.93-6.53-7.38-6.16-8.93-9.13-1.49-2.08-4.74.23-3.99 3.01 2.96 4.77 2.9 1.12.93 5.26.25 1.25 2.06 1.81 1.89 2.87-1.07 3.79.96 3.88-1.6 6.16-2.61 5.38-1.59 4.18-4.69 5.12-1.04.21-1.18 1.52-1.72 2.4-3.96 2.49-6.11 1-6.66.29-5.31-.42-14.14-3.86-12.03 4.04-.24 2.62-1.93 1.54-3.89 2.48-1.41 2-2.54 1.82-4.01 2-1.33.87-2.52 1.87-3.99 2.06-7.13 1.05-11.81-2.91-18.46-4.38-2.67-1.8-3.23-4.61-5.87-6.82-1.52-1.69-5.54-1.89-6.27-1.76C5.39-2.25 1.27-.37.43-2.55c-1.56-1.9-.7-4.71 1.61-4.46.83.76 2.26 2.26 3.49 1.62 2.89-7.71 9.28-6.15 15.81-6.22 4.21-.96 8.63-3.41 10.97-5.83 7.06-2.96 7.47-5.58 11.01-8.6 2.78-2.65 5.35-3.15 7.83-5.53 1.77-3.24 7.47-7.29 8.66-9.79 1.37-3.85 5.67-9.44 10.21-13.23 1.97-2.37 2.37-5.25 4.19-7.83"/><path d="M27.12 57.19c6.66-7.91 12.66-1.68 12.96 0M-91.89-56c6.18-.15.68 5.64 17.88 3.93 1.17.33 4.57 1.14 6.05.84 1.96 1.66 5.89.92 8.77 1.14 2.09.58.87 3.7 2.97.5 1.49-3.16 5.98-3.58 8.55-4.09 2.49-3.57 5.76-2.95 4.88-1.6-.99.67-3.1.75-2.76 2.09 5.62 8.06 3.11 3.51 6.61 5.59 3.26 1.95-1.11-4.62 5.72-1.39 3.6.94-.81 5.91 4.41 5.98 1.95 1.35.45 3.29.56 4.97.68 2.11.88 5.46 3.6 4.78.96 1.09 3.08 1.65 3.69 1.27 2.38.99-2.71 4.68 2.29 5.79 3.36.31 8.79-1.24 10.22 1.97.23 3.59-5.41 2.29-1.83 7.14 2.25 2.29 6.19 2.44 6.79 5.87-1.11 2.14-4.7 0-6.09 2.23C-10.72-7.51-9.91-5.8-12-5.5c-1.16 1.61-1.99 5.97.61 6.41.67-.03 3.94-.3 2.72.88-2.2.22-3.92-1.4-3.91 1.69.82 1.75 3.78.46 4.86 2.08.17 5.75 4.08 3.22 4.79 4.56-2.96 11.52-18.52 2.32-13.53 10.38 1.13 1.7 1.21 2.3 1.41 4.63 2.36 2.91-1.52 7.2-1.16 10.19-.43 5.59 2.54 3.08 3.07 5.6-2.95 3.73-.4 2.92 1.85 6.82 1.85 3.24 13.64-7.56 14.52-8.26.87-.76 3.16-.22 4.7-1.66 10.09-7.19 1.94-3.04 12.06-4C30.1 35.63 5.86 52.54 1.77 49.76c-2.85-.68-5.89 6.1-7.55 7.44"/><path d="M41.85-62.43c-1.24 2.19 2.32 5 1.67 7.14-3.33 2.2-1.76 1.09-2.56 3.77-3.67 4.3-3.46 9.14-8.06 10.48-2.88 1.04-2.04-5.91-4.55-8.53-.25-2.39 2.19-2.93 2.64-5.07 1.58-2.88 1.11-3.44-1.18-4.39-2.48-1.04-5.08.22-7.87-.73-4.44.06 1.55 9.4-1.13 9.47-.48.12-.79-.1-1.2-.41-4.38-4.48-2.44 5.85-7.27 3.51-3.35-1.02-3.07-2.64-5.96-2.58-2.13-1.52-4.53-4.26-8.8-5.27-10.64-.86-14.87-1.9-17.16-7.39m124.86 45.47c-3.62 7.75-11.21 6.77-12.86 4.33-1.79-2.75-6.15-6.04-7.32-7.64-1.2-3.78-5.52-4.42-5.58-.62-2.75 4.67-1.03 3.5.6 6.26-.45 4.39 1.25 3.34 1.23 4.8.96 4.64-.52 4.74-1.14 6.48-1.42 5.03-2.69 3.81-4.22 4.42-3.18 2.89-1.62 1.19-4.34 1.6-1.88 2.02-4.48-.37-5.69.51-3.09-.05-6.37-2.51-9.92-.34-1.09.61-2.95.6-1.93 1.87 2.95 3.59 1.03 5.11-2.01 5.4-2.2 2.19-3.1 1.83-4.1 2.12-1.28.8-2.28 1.87-2.88 1.84-6.52 1.5-11.9-2.15-16.9-3.66C19.94 8.3 24.37.75 12.39.55c-3.37-1.89-2.31-2.18-4.78-1.8-2.81-.3-3.02-1.48-4.13-.89-2.27.91-3.86-3.84-1.16-3.29.94.31 1.62 1.08 2.77.88 2.76-.74 1.08-4.25 4.19-5.36 8.74-3.47 11.99 1.07 17.44-3.34 1.06-.33 3.09-.61 3.6-1.5.58-.61.94-1.22 1.64-1.76 5.78-1.35 7.49-5.2 11.46-8.94 10.07-7.02 9.81-8.25 15.07-12.92 8.55-16.79 11.44-12.51 16.34-24.07"/><path d="M27.44 57.19c4.52-5.54 9.47-4.2 12.4 0M-91.89-55.58c4.28-1.26 2.81 6.09 17.2 3.59 2.67.44 4.21 1.32 6.74 1.11 1.17 1.98 3.26.42 6.07 1.31 3.67-.58 3.25-.27 3.83 2.98 1-.04 2.01-3 2.84-4.06 3.34-3.24 9.17-2.91 11.58.73.78 1.26-.56 3.67 1.27 3.09 3.34-2.18 3.28 1.25 5.24 1.1 1.1-.32.29-1.98.43-2.94.56-1.76 5.11.51 4.37 1.78-.16.35-.99 1.42-.82 1.49.55.88 1.09.96 1.01 2.21-.38 3.66 2.86-.08 3.06 1.65-1.13 6.48.6 5.5 2.53 9.39 1.78.14 2.71.44 4.38 1.91.49.71-1.7 2.97-1.21 3.8 1.89 2.3 8.99-.35 12.04 1.48 5.57 2.04-6.85 4.36 2.67 9.88 1.07.76 2.09 1.61 2.78 2.77.62 1.13-4.65.72-5.32 1.76-4.29 4.09-4.27 9.92-2.27 14.77.84 1.51 4.49.27 4.88 2.04.09 5.38 4.9 2.75 2.75 7.07-2.93 5.13-14.3.45-12.61 5.44.52 3.76 3.05 5.83 3.19 9.08-1.43 6.93-4.65 9.42.85 13.12-1.97 3.22-.8 3.06 1.88 7.5 3.34 2.96 14.8-6.85 16.02-8.1C5.6 39.08 6.7 40 8.83 37.91c1.92-.76 3.26-2.39 4.96-3.51 1.32.83 5.49-.7 7.19.92 3.04 3.1-12.23 12.77-14.68 13.59-1.77.97-3.55.72-5.22.63-2.5.46-5.46 6.21-7.04 7.66M13.5-62.43c2.06 5.43.25 5 .92 8.99 3.29 4.63-2.55 7.76-5.5 1.82-1.35-1.33-2.06-.38-3.79-.48-.86-.26-3.6-2.37-4.71-2.7-2.87-1.3-3.97-.67-5.62-.58-12.48-1.58-12.07-3.38-14.09-7.04m60.44 0c-1.09 2.24 2.41 5.76 1.16 6.77-4.93 1.6-.09 5.04-5.14 6.18-1.81 1.08.38 3.37-1.5 5.03-2.59 3.11-4.23.22-4.3-2.33-.16-1.35-1.13-1.11-2.13-2.56-.98-2.76 1.59-2.18 1.87-3.61 1.04-4.48 5.51-6 .54-7.37-13.4-3.51-14 1.51-14.25-2.11m87.88 44.25c-3.56 9.14-11.55 7.19-12.41 5.46-2.83-3.92-6.19-6.29-6.88-7.32-1.87-5.68-7.4-5.97-7.74-2.94 1.9 3.42-3.3 3.24-.8 6.77 3.58 2.5 1.05 3.27 2.02 5.95C82.3-8.36 78.85.08 77.78.1 75.9-.03 74.54 1.58 73.93 2c-3.4-.12-8.4 1.38-12.63-.43-3.07-.95-5.26.78-9.38.9-3.46 1.72 9.02 4.72-.34 7.46-11.25 8.23-16.96 1.65-26.1-1.25-3.3-2.61-3.31-6.54-7.73-8-6.27-1.58-4.25.54-7.87-3.27-1.84.11-6.1 1.62-3.4-2C10-16.15 19.35-7.03 26.7-12.58c3.62-1.19 3.08-.72 5.23-3.29 6.39-1.61 6.63-3.95 10.13-7.44 4.21-5.05 7.4-4.91 10.42-8.47 8.8-7.47 7.79-10.11 10.93-15.12 12.01-12.47 6.91-7.65 12.04-15.53"/><path d="M27.7 57.19c4.23-4.99 8.72-4.14 11.85 0M-91.89-55.19c.82-.46 1.8-.37 2.78.44 4.94 6.25 13.55 1.43 17.04 3.68 4.33 1.54 4.38-1.17 3.02 3.33 6.38-3.51 3.35-1.27 9.76-1.61 1.21.24.11 2.52 1.27 3.55 1.5-.91 1.9-3.48 2.94-4.5 1.3-1.87 5.68-3.14 6.84-1.19 5.8.45 3.72 2.61 4.41 5.34 4.89-.25 1.96-2.4 6.41 1.74 3.29-.29 1.2-3.52 1.88-4.14.1-.29 3.11.29 2.09 1.61-2.73 2.08-.98 1.8.31 3.39-.23 2.65 1.52 3.28 2.04 4.19.37 2.1-.06 2.52.99 3.69 6.13 8.72 5.86 1.44 5.74 10.12 1.44 2.09 7.64 0 10.13.47 7.27 1.86-3.76 4.85 4.26 10.1.85.73 1.39 1.35 1.12 1.82-6.32 1.56-7.57 8.92-7.41 14.21 2.35 2.49 1.97 3.81 2.36 4.34 6.18 1.62 4.23.9 5.53 6.86 2.22 3.56-4.96 2.8-8.1 3.59-3.55-.09-3.14 1.35-3.11 5.05 1.23 2.74 4.1 4.62 2.72 8.02-1.99 9.54-1.93 10.7.27 11.9.87 12.79 5.55 10.69 13.17 5.31C2.95 43 12.67 34.94 16.29 35.3c13.27-.96-12.18 16.29-16 14.27-1.52.65-5.53 6.75-6.47 7.61M12.5-62.43c-.07 1.55 1.59 3.09 1.17 4.89-2.18 5.46-3.77 4.12-6.68 2.31-1.97 4.28-4.74-.48-8.03-.84-10.78 1.14-16.66-1.89-17.99-6.35m41.22 0c-.61.28-1.54.22-2.2 0m20.41 0c-.92 3.73 2.65 5.93-2.24 7.65-1.07.84.39 2.65-.68 3.26-6.8 3.12-6.68-3.76-2.16-6.86 1.99-.52.66-2.44-.52-2.57-2.42.47-6.22-1.03-8.98-1.49m79.46 43.06c-3.58 10.2-11.57 8.2-12.7 5.75-9.59-9.83-6.16-10.19-8.96-11.04-5.46-3.03-7.91-3.84-5.63 3.37-.39.66-2.23 1.49-2.02 2.77-.21 1.52.39 2.47 1.06 2.93 3.93 2.33-.03 3.31 1.59 5.93.63 1.2 1.22 2.01.98 3.52C78.44.51 78.38-.86 75.36.03 67.94 4.2 59.43-.49 57.63.71 46.66 3.99 49.27-2.23 46.41-.31 44.75 1.37 54.03 6 54.2 6.89c1.43 1.56-5.68 4.05-6.26 4.49-2.77 2.15-6.48 2.6-9.86 1.61C13.13 4.61 28.18.59 13.03-.62c-4.92-5.06-3.2-2.11-5.54-3.39.22-11.54 14.79-2.93 19.75-8.1 2.71-.85 4.09-1.56 4.44-2.7 1.01-1.23 5.28-1.54 6.48-3.25 6.11-8.11 11.99-10.7 18.68-16.82 3.61-2.7 4.08-7.76 6.25-10.89 2.28-3.46 5.31-6.02 8.16-8.69 1.75-2.9 3.13-5.38 4.8-7.96"/><path d="M27.96 57.19c4.4-5.05 8.09-3.38 11.27 0M-91.89-54.7c1.38-.83 2.46-.07 3.46.97 3.68 4.3 12.84 1.81 14.67 2.27 5.94 2.1 4.79.72 3.69 4.13-.24 2 5.19-3.17 5.45-2.21 4.42 1.41 5.58-1.1 5.91 2.8.13 1.12.21 1.96.76 1.6 3.08-5.17 6.17-9.5 9.51-5.23 6.99-1.54 2.42 5.2 3.93 4.94 6.74-.99 2.59-2.1 6.63 2.03 5.02-.7 4.15 3.79 6 7.04 1.39 1.54 4.1 4.76 5.76 6.01 3.63 1.4-4.42 8.1 7.4 6.1 1.31.03 4.6-.01 5.06.19.85 5.03-1.22 5.58 1.85 9.17-1.97 3.66-4.6 3.79-4.38 6.51.71 4.57-1.73 5.82-1.47 9.14.37 2.01 3.54 1.95 2.87 4.75.04.16.21.17.76.52 1.13 1.03 3.16.72 3.55 2.3.32 2.84 1.34 5.2.32 5.56-7.2 2.32-9.08.84-10.02 2.2-3.55 7.22 1.95 6.55 2.55 9.87-.76 4.38-2.78 5.46-.95 8.77-.21 1.82-1.43 4.2-.22 5.39 2.12 2.55 1.08 5.85 1.56 9.64 1.23.69 3.37 1.55 5.06 1.89 2.18-1.24 4.46-1.87 6.64-3.37C8.49 40.39 13.9 34.83 18.15 36.12c5 1.89-15.82 14.72-17.98 13.28-2.4 1.53-4.56 5.84-6.6 7.78M11.73-62.43c-.45 1.5-.4 1.94.19 2.25 2.65 2.25-1.38 4.67-2.82.55-4.61-.54-4.66 2.49-6.2 3.55-1.28 1.11-3.37-1.03-5.12-.61-5.44 2.15-15.33-.49-16.58-5.73m58.19 0c-1.96 5.95-1.28.15-4.75.57-3.02.46-3.63-.07-5.56-.57m76.2 42.35c-2.33 2.92-2.4 7.72-7.62 7.78-5.22 1.84-11.13-9.64-12.24-12.03-4.54-2.63-9.3-8.04-9.21-.26.22 1.47 1.61 2.48.26 3.69-4.3 5.81 1.45 5.71 1.65 7.16-1.62 2.79.09 4.43.74 6.51.18 6.7-2 6.36-3.62 6.54-2.77 2.26-12.43 2.07-15.67.31-1.79.2-5.25 1.05-7.65.99-2.78 1.39-3.75-4.56-6.45-1.09-.78 2.5 5.34 4.48 6.15 7.35.79 1.84-2.15 3.61-4.18 4.27-4.76 3.64-11.03 1.14-15.5-1.12C19.78 4.57 24.2 3.15 20.19.43c-6.21-3.54-6.51 1.03-9.05-4.22-.4-.42-1.05-.54-1.8-.72-.83-.12-.99-.72-.95-1.58 2.41-7.57 12.94-1.98 18.25-4.44 12.03-5.91 13.59-9.39 18.17-14.03 1.43-2.12 5.09-3.67 6.86-4.93 3.02-3.64 6-4.81 6.76-5.65 3.14-6.6 5.53-13.82 11.8-17.91 2.86-2.71 4.38-6.68 6.43-9.39"/><path d="M28.21 57.19c4.48-4.69 6.99-3.21 10.67 0M-91.89-54.27c2.52-1.46 3.6 2.07 6.11 2.61 4.81 2.15 15-1.66 15.84 2.86-.54 1.19-1.24 2.81-.35 2.88 2.49-.55 4.18-4.77 7.63-2.83 4.88-.26 3.09.65 4.14 4.99.28.9 1.61-2.84 2.58-4.07 6.33-8.55 4.73.04 10.04-2.14 3.64 1.75-3.43 7.47.26 5.76 7.97-3.37 3.89.03 7.13 1.47 1.16.57 2.5.8 3.22 1.96 2.38 6.82 3.62 6.12 5.6 7.65.99 1.47 2.73 3.29 3.62 3.82-.6 8.83-.12 4.63 5.66 7.03.81-.36 3.05-2.22 3.73-.64.16 2.21.36.82 1.96 1.6 3.56 12.3-2.8 6.92-3.71 10.81.8 3.27 2.65 4.2 1.05 6.39-5.22 11.2 5.24 4.3 1.06 10.9-.11.27-.31 1.02-.09 1.91.5 1.25 2.01-3.73 4-.3.93 2.21 1.08 3.68-1.28 5.38-3.1 2.64-4.57-.18-7.3 1.74-4.9 8.7-1.32 5.26 2.2 10.22-1.6 6.06-2.17 4.37-.54 9.84-1.66 2.74-.47 3.98.47 6.28 1.43 5.55-.52 8.43-1.88 9.24-2.35 3.17 2.93 1.84 5.99.92 1.27.14 1.78 1.07 2.77.47 7.68-3.46 13.7-7.77 20.62-12 1.55-2.13 10.06-5.71 8.64-2.07-2.33 3.62-14.49 11.26-15.79 10.61-4.05.54-5.57 6.23-8.13 8.16M9.68-62.43c-4.77-.14-4.74 3.3-8.07 4.78-5.13.24-4.66 1.44-7.13 1.63-4.85-.39-11.49-1.07-13.05-6.41m51.41 0c-.2-.01-1.07.09-1.17 0m6.06 0c-.25.23-.83.23-1.2 0m68.75 41.93c-1.69-.35-1.39 4.18-3.67 6.05-10.5 8.23-12.93-10.81-19.31-12.33-5.06-7.19-8.36-.69-6.21 3.71.5 1.58.03 1.02-1.12 2.66-.84 1.98-.81 5.23 1.18 6.93.09 2.05 1.23 4.66 2.09 6.6.8 5.57-2.88 6.13-7.24 6.69-3.04 1.31-4.25.61-6.93-.14-1.99.31-2.65.07-4.61-.8-2.32.06-4.07 1.16-7.2.88-3.24.94-2.8-2.76-5.61-1.9-6.47 2.33 4.74 6.66 3.81 9.8-4.67 9.92-20.13 2.03-26.72-3.17C22.06 1.8 21.51.22 19.61-.49c-8.45-3.59-3.7 2.8-9.63-5.62-.44-7.22 14.04-.39 22.01-6.11 5.66-1.96 7.87-7.66 13.24-11.62 1.71-3.05 4.9-3.36 7.33-5.59 2.59-3.89 5.21-3.24 6.74-6 5.11-16.61 12.72-16.26 17.94-27"/><path d="M28.49 57.19c4.54-4.52 6.24-2.69 9.97 0M-91.89-53.85c3.22-1.22 3.33 2.48 7.51 2.78 5.53 1.7 10.51-2.03 13.99 1.99-.15.9-1.54 3.51-.05 3.68 3.91-1.53 3.31-4.73 8.57-3.12 5.24-1.46 1.75 9.16 2.07 9.71 1.89-.15 1.96-9.51 7.2-11.99 2.9-1.52 2.87 3.06 5.03 2.06 5.46-2-1.26 5.13-.35 5.99 5.15-1.44 5.67-3.6 7.47-.48 3.13 3.61 3.01 1.29 4.08 5.56 2.77.6 2.78 3.33 3.63 4.03 3.02.68 3 1.74 3.64 3.09.35.55 2.06 1.16 2.17 1.87.73 1.27-.98 2.72-.46 4.51 2.75 5.36 3.26 1.32 4.88 1.99 2.49 3.79 3.14-.27 6.1 2.15C-7.2-8.62-28.39-17.75-18.09-7.1c.73 3.8-3.62 8.86-.81 10.86 1.1.81 2.82.19 2.7 1-.34.58-1.65 4.16-.83 5.06.69 1.15 4.06-.94 3.36 2.27-1.12 3.09-4.74 1.72-6.95 2.37-1.19 0-5.76 7.2-4.56 7.64 3.75 3.29 6.54 1.7 3.98 7.81-.14 1.32.06 2.46.5 3.58 1.55 1.71-.94 4.35-.14 5.33 4.56 11.52-4.77 13.02-.16 15.04 7.82.32 15.33-1.97 19.52-6.66 10.23-5.08 14.12-10.36 17.17-9.04.72 1.25-2.51 3.19-3.49 4.15-18.77 13.55-7.9.23-19.1 14.85M5.03-62.43C3.88-58.84.6-59.37-.95-58.52c-4.88 4.76-16.44 1.11-17.35-3.91m123.58 41.57c-.77-.34-1.35.07-1.61 1.01-.38 4.42-3.82 7.33-8.25 6.91-3.61-1.15-7.21-8.21-8.68-10.82-1.1-2.9-4.78-2.12-5.43-5.97-.4-1 .2-1.07-1.17-1.68-2.19-1.68-2.34.3-4.08 1.76-2.64 2.45-1.35 3.98-.58 6.49-.07 1.63-2.28 3.85-1.54 7.45.43 1.98 1.64 1.85 2.37 6.3.83 1.68 2.94 4.82.43 6.91-2.17 1.73-9.97 3-11.4 1.71-7.27-.42-4.5-1.7-7.89-.84-9.87 2.74-8.1-4.02-13.14.25-.84 1.16.16 2.46 1.4 3.74 9.22 6.9.29 10.07-6.65 9.31-4.81-1.32-7.89-2.77-12.29-6.17-.44-.58-2.24-.58-2.86-1.77C17.09-7.7 13.2 2.25 11.85-5.26c-1.38-4.74 2.62-4.15 6.22-3.83 12.27.12 10.42-.71 14.9-2.54 4.61-1 5.29-5.05 8.1-7.91 6.09-4.22 6.71-6.26 10.55-8.13 2.61-2.54 3.11-3.63 6.66-5.61 2.68-3.17 2.89-8.01 5.36-11.84 4.29-6.36 10.94-10.8 14.75-17.27"/><path d="M28.79 57.19c4.08-3.93 5.78-2.56 9.09 0M-91.89-53.4c3.47-.73 4.62 2.92 8.31 2.8 2.36.48 3.53.34 5.92.07 10.88-1.17 4.32 4.3 6.86 5.9 3.84-1.9 4.38-5.41 8.59-3.62 6.54-.7.55 10.19 2.06 10.05 3.07.96 1.93-11.89 9.06-12.21 1.39.44 1.28 2.8 3.42 2.73 3.5-.57-3.09 5.66-1.52 6.19 6.76-1.76 4.55-5.62 10.41 1.13 1.39 1.49 1 2.51 1.47 3.25 4.03 1.31 2.37 3.06 4.41 4.42 2.04.13 3.3 2.85 5.09 4.85.22 1.73-1.3 2.26-.53 3.94 2.33 6.35 3.14 2.5 6.45 4.57 4.05-.7 4.66-.85 6.55 2.25 2.41 4.78-4.75 1.86-5.67 2.92-3.62 3.28 1.56 6.02 1.96 7.06.58 1.16.3 2.28-.41 3.64-3.48 10.02 2.35 7.84 2.07 9.63-1.57 5.65 1.35 4.74.72 6.12-6.5 3.7-4.49-.24-9.14 6.73-3.67 4.52 2.74 4.41 4.32 7.17-.51 4.67-1.03 5.77.58 9.03-2.03 5.43 1.86 5.72-.24 11.89-.36 4.09-4.42 6.19-.81 7.2 7.23 1.32 11.23-.83 16.35-2.55 7.9-6.4-.21 4.15-1.63 5.45M4.2-62.43c-1.28 2.4-3.01 2.5-3.98 2.72-1.27.39-3.08 2.23-4.37 2.92-4.64 1.13-13.05-.88-13.96-5.65m123.39 41.17c-1.08-.38-1.73.27-1.94 1.14-.43 6.29-7.35 8.95-10.53 4.81-6.71-9.04-5.12-8.96-10.53-13.34.34-3.28-.94-4.72-3.72-4.64-2.22 2.9-4.54 4.38-4.97 5.97.6 3.92 2.1 2.77-.05 7.86-1.3 5.41.64 5.02 1.39 6.9.4 5.31 5.94 8.16-.65 10.6-5.71 1.67-9.67 1.05-14.94-.78-11.23 2.61-8.43-1.28-13.42-.3-3.17.87-3.25 2.24-1.62 4.34 10.24 8.81 1.12 10.43-5.78 9.6-6.86-2-14.7-7.46-16-10.22-7.79-8.07-9.14.73-10.14-6.62.19-4.4 4.2-2.68 6.35-2.56 4.57-.74 10.23.72 14.82-2.48 5.86-.7 5.02-7.5 9.84-9.79 3.49-1.19 3.76-3.06 5.42-4.32 2.81-1.28 4.85-3.4 6.67-5.62 1.5-.6 2.85-1.57 3.78-2.83 4.72-12.73 5.3-14.24 12.84-20.12 2.18-2.35 6.09-7.21 7.06-8.76"/><path d="M29.15 57.19c3.62-3.47 5.34-2.31 8.18 0M-91.89-52.93c1.75-.7 2.66.52 3.94 1.33 12.1 5.06 16.11-4.67 16.64 7.56 2.17-.18 4.08-4.36 6.94-4.5 10.74.15.78 11.32 4.27 10.84 1.23.11 2.15-1.05 2.16-1.88 1.87-16.67 15.12-8.62 6.4-1.2 9.21-.09 5.38-7.2 12.84 1.32.67.95.46 1.71.59 2.47.02 1.45 3.41 1.13 3.1 2.34-.2 4.79 5.43.27 5.9 10.66.18 1.33.41 2.5.92 3.46.06 1.57 7.83 2.56 8.76 2.12 1.59-1.36 4.04 1.91 3.41 3.19-5.55.01-10.28.24-6.04 6.33 1.08 1.11 2.89 1.58 2.51 3.08-2.2 4.25-1.78 8.01-.79 11.18 2.91 1.13 2.52.14 1.71 3.34-.08 1.05.78 3.31-.6 3.72-5.76.88-6.79 6.51-9.79 8.75 1.08 2.27 7.59 4.93 6.67 5.86-1.47 3.39 1.2 8.07-.19 11.16.42 2.88 2.82 4.56.04 7.93-.37 6.18-2.94 7.08-2.3 8.13 6.76 2.49 13.04.76 20.17-2.23 1.86-.69-2.48 4.76-3 5.15M3.28-62.43C2.07-60.32.57-60.48-.63-59.95c-1.02.57-2.83 2.59-3.47 2.85-4.62 1.26-12.63-.34-13.75-5.33m123.13 40.9c-3.48-1.73-1.27 6.85-7.8 7.84-6.61.16-8.64-11.19-14.35-15.06.23-4-1.78-6.15-4.92-5.11-1.02 1.31-1.64 2.88-3.89 4.26-3.49 2.41.54 4.35-.2 7.28-.47.81-1.95 4.78-1.78 6.06-.07 2.37 1.32 2.26 1.92 3.83.76 4.2 3.26 6.41 2.85 7.5-1.83 4.6-13.73 3.76-17.27 1.68-2.13-1.2-3.85 1.1-5.95.8-3.3.03-9.75-3.15-11.54 1.35 1.4 3.97 8.59 7.8 5.05 10.38-9.23 5.37-22.87-6.07-25.9-10.6-1.01-.92-2.03-.26-3.44-2.34-1.96-1.79-3.33 1.43-4.61 0-2.19-3.84 2.41-5.48 4.96-4.33 3.36-.75 11.15.47 14.46-1.66 8.2-2.57 4.66-4.74 9.06-9.53.8-1.36 4.38-1.96 4.95-2.75 2.41-3.06 8.67-6.46 12.4-10.87 3.52-8.29 4.64-15.38 12.51-20.12 2.04-2.1 5.73-6.22 8.23-9.5"/><path d="M29.47 57.19c3.35-2.87 4.88-2.16 7.28 0M-91.89-52.55c2.94-.5 4.76 2.68 8.34 2.68 15.81-.04 10.06-1.25 11.72 6.62 1.92-.05 3.6-3.12 5.34-4.14 3.77-2.14 8.65-.71 6.52 5.65-.82 2.7-2.35 4.18-.86 4.46 5.66.73 1.4-7.68 6.92-10.64 2.92-2.51 5.13 1.32 4.45 3.76.47.82-6.37 5.03-3.23 4.36 8.85-1.25 8.82-5.59 11.44-1.56 2.85 2.39 2.54 3.17 2.78 5.42 1.79 1.35 2.09 1.17 1.93 3.14.47 1.99 3.61 1.45 4.94 3.03 4.82 11.67-1.4 9.91 9.42 12.41 3.45 3.21-7.96 1.62-.99 8.34.54.39 1.3 1.73 1.86 2.63-3.18 16.42 8.38 14.72-3.66 20-1.26 2.65-2.05 4.35-4.84 6.48-3.9 2.85 4.59 3.67 5.36 5.51 1.56 2.25.1 5.96 1.55 9.08-.59 5.15-.23 5.49.94 8.01.44.94-1.99 3.3-1.79 4.38.39 3.2-1.85 4.97-2.44 6.8-.99 2.74 4.12 1.09 6.33 2.36 3.45.75 6.83-1.17 11.17-2.15 3.37-.5 3.29.25.63 3.11M2.36-62.43c-.72 1.49-2.48 1.48-3.49 2.22-.56.45-2.48 2.58-3.54 3.11-4.34.96-12.19-.71-12.98-5.33m122.93 40.6c-3.77-1.94-1.97 7.02-7.97 7.7-4.78.33-6.94-7-10.26-10.91-1.42-1.27-1.88-2.93-2.25-4.85-3.87-4.09-.41-6.35-5.95-4.86-2.49 1.82-2.6 3.82-5.55 5.12-2.23 1.48-.62 3.18.08 4.92.64 1.81.49 1.79-1.03 4.91-2.28 6.01.05 5.3 1 6.94.76 1.69 1.47 4.53 3.22 6.86 1.65 2.51-4.89 3.37-7.79 4.05-3.84.37-6.94-1.21-10.26-2.65-4.87 2.78-7.44.93-11.31.61-3.01-.21-7.75 1.97-4.12 5.04 7.06 7.5 5.4 8.67-2.92 9.1-2.54-.26-6.1-2.4-8.41-3.4C21.44.64 18.9-7.48 15.9-4.86c-3.19 2.11-3.09-2.02-.69-2.69 9.45-.16 17.48.04 22.07-3.13 1.95-.92 2.58-2.89 2.67-4.36 3.66-7.61 4.89-3.76 7.93-6.97 2.97-3.42 8.5-6 11.56-10.22 1.96-2.64 1.56-5.48 2.79-8.12 2.75-3.41 1.63-5.27 5.12-8.54 4.69-3.84 11.52-10.69 13.76-13.54"/><path d="M29.88 57.19c2.83-2.44 4.46-1.77 6.47 0m-56.02 0c4.3.04 16.48-5.55 11.06 0M-91.89-52.1c1.42-.72 3.7 1.57 6.25 2.16 10.76 2.53 13.51-4.93 13.28 7.36 1.27.07 1.51-.49 2.52-1.44 6.68-7.92 13.64-3.52 8.17 5.64-1.39 1.78 1.68 2.31 4.12.52.49-.6.66-.79.4-1.6-1.1-4.7 4.23-11.6 6.86-6.66 2.34 3.26-10.04 8.51-3.91 7.45 10.15-3.13 11.1-4.58 12.11-3.06 3.81 4.72 2.34 1.46 3.37 6.59.52.67 1.26.76 1.41 2.04-.02 3.02 2.9 2.14 4.36 3.7 5.09 7.07-.28 12.68 9.39 12.53 1.52 2.86-10.08 2.57-2.31 6.83 1.4.84 1.86 1.04 2.32 1.9 1.5 3.22.31 7.34 1.44 10.52.08 6.64 3.74 7.45-3.16 10.36-1.96 3.93-2.84 4.43-6.77 8.07-1.24 1.3.28 2.01 2 2.67 5.31 1.74 5.85 2.19 5.53 5.81 1.3 12.48-.08 10.16 1.63 13.88-1.12 1.31-1.72 5.49-2.38 7.26-5.65 6.95 1.64 5.19 4.1 6.76M1.16-62.43c-1.92 1.3-4.05 3.47-5.84 5.02-4.63 1.07-11.86-.45-12.77-5.02m122.73 40.28c-4.12-1.68-2.46 6.15-7.27 7.38-4.2 1.48-7.46-5.39-9.02-8.55-2.22-2.02-3.8-4.91-3.39-5.62.35-.67-1.11-1.99-1.86-3.12-.72-2.14-.77-3.64-1.18-4.03-3.91-1.01-6.4 4.42-7.67 4.89-7.03 2.99-1.45 4.08-1.59 8.41-5.63 10.91-1.28 5.98.8 13.41.22.95.8 1.31 1.53 2.34 2.95 3.41-4.85 4.08-7.17 4.69-3.54.34-6.67-1.31-9.45-2.95-5.59 2.47-6.57 1.66-11.22.89-11.41.5-5.21 6.13-2.13 9.64 5.03 5.55-8.11 4.91-11.79 2.14C29.51 4.99 23.08-.1 22.45-2.08c-9.67-9.06 10.27-2.57 15.27-8.24 2.63-1.54 2.62-3.33 2.86-4.46.67-1.1 2.31-3.73 2.46-4.2.59-1.11 3.68-.91 4.31-1.61 3.55-4.26 8.53-6.19 11.76-10.39 2.15-2.9 2.44-5.68 3.12-8.83 2.46-2.53 2.84-6.85 5.38-8.98 5.01-3.54 11.41-10.99 14.76-13.63"/><path d="M30.39 57.19c2.16-1.87 3.9-1.48 5.47 0m-51.73 0c1.18-.32 8.87-3.1 6.7 0M-91.89-51.63c1.1.02 1.18-.43 2.52.54 10.71 6.08 18.64-4.59 16.08 8.58.01.63 1.37.56 2.25-.05 6.77-7.89 11.91-5.75 11.03-.63.26 2.81-5.27 8-.98 6.88 16.6-4.04 17.31-8.36 21.12-2.15.8 1.69-.12 3.59 1.55 4.5 1.06 6.1 4.21 2.72 5.86 6.69 2.03 3.66 1.45 5.13 1.95 8.37 4.84 4.94.51 4.4.32 7.68 1.73 1.26 5.8 1.5 6.21 4.46.81 5.62.96 9.57 1.96 14.71.79 3.66-2.22 2.6-3.62 4.19-1.77 3.99-3.45 3.98-4.71 5.82-1.04 2.55-4.36 3.15-3.22 4.57 1.75 1.65 5 1.88 6.77 2.63 3.79 1.14.37 6.32 2.21 9.69-.31 7.57.91 8.17.22 10.26-1.3 5.66-7.54 9.64-.4 12.08M.16-62.43c-2.02.8-3.13 3.98-5.15 4.76-4.95 1.14-11.49-.49-12.23-4.76m122.5 39.99c-3.61-1.21-3.15 2.73-4.73 5.21-2.81 3.77-6.72 1.98-8.71-1.64-1.73-3.07-2.95-5.11-5.63-8.5-.38-4.15-1.47-3.27-2.28-5.47-.71-10.16-7.1.84-10.81 1.97-7.36 4.11 5.05 3.54-3.75 14.89.02 1.37 3.28 3.12 3.56 5.14.68 3.09 2.83 3.49 2.77 5.51-8.79 4.3-10.45 2.67-15.61-.13-4.41-.83-4.24 2.72-10.92.77C37.22-5.35 39.7.63 45.78 6.72 42.7 13.58 27.43 3.54 23.8-1.12c-1.62-3.6-4.27-4.8-1.3-5.63 20.23-.41 16.13-5.15 21.51-12.37 1.2-.31 3.42-.25 3.75-1.02 1.92-2.57 5.3-4.45 8.23-6.87 4.9-4.64 4.93-6.14 6-10.69.24-2.23 1.43-2.75 2.8-4.92.83-4.75 4.29-7.44 7.02-8.88 2.28-1.01 3.22-3.58 5.09-5.52 2.09-1.82 4.85-3.75 6.64-5.4"/><path d="M30.84 57.19c1.71-1.34 3.31-1.14 4.61 0M-91.89-51.16c.83-.28 1.78-.11 2.68.64 9.66 4.93 18.24-3.48 15.47 6.98-.3.87-.27 1.45.78 1.88 2.46-.32 4.08-2.83 6-4.43 2.83-2.53 7.41-1.28 6.81 2.07.33 2.86-3.14 6.87-3.38 8.19-.13 1.49 11.66-2.83 12.35-3.28 3.51-.73 8.18-3.56 9.4-.2 1.22 1.17 1.82.63 1.75 2.89.31 2.63 1.52 3.09 1.96 5.9 5.49 2.79 6.87 5.07 6.83 10.07.16 6.06 4.04 2.89-.57 9.67 7.24 2.91 7.4 1.91 7.6 9.62-.38 1.12 1.82 6.46 1.61 9.8-.33 2.7-2.65 1.64-3.06 2.25-1.57 5.01-5.12 4.91-6.1 8.44-1.06 1.24-4.5 1.77-3.02 3.48 7.05 4.37 11.33.27 8.57 9.54 1.47 3.37.47 8.31 1.14 12.82-1.86 5.16-7.23 8.25-1.29 12.03M-1.25-62.43c-3.7 8.82-15.56 4.21-15.75 0m122.28 39.75c-5.08-1.52-3.17 6.2-7.4 6.85-4.84 1.35-6.4-4.9-8.55-8.29-4.2-3.64-2.09-4.21-3.7-6.84-2.36-2.59-.65-3.62-2.22-6.01-2.07-2.25-2.8.07-4.44.93-2.33.47-2.45 3.42-4.88 4.23-5.53 1.66-4.27 4.52-1.77 7.12 1 1.09-1.7 6.5-2.67 7.15-2.85 1.83.49 3.71 1.85 5.12.9 1.6 1.74 4.44 3.22 5.66 1.24 1.67-1.1 1.66-3.02 2.34-6.2 3.39-7.87-.52-12.99-2.1C51.17-2.11 42.68-9.4 39.93-.78c1.13 5.59 5.31 6.72 3.69 8.39-5.2 2.38-14.12-3.76-15.39-5.72-4.62-2.68-6.53-7.79-3.89-8.21 8.18-.02 14.93-1.63 17.21-7.07 2.66-7.13 4.28-4.91 6.11-5.77 2.46-3.07 5.07-4.12 7.96-6.82 5.29-4.79 5.98-7.44 7.24-13.53 5.46-7.55 2.84-8.7 9.3-11.64.9-.53 1-.53 2.17-1.88 2.77-5.09 7.06-5.92 9.93-9.39"/><path d="M31.54 57.19c.91-.73 2.4-.76 3.33 0M-91.89-50.65c1.02-.29 1.9-.06 2.7.45 6.21 4.16 15.01-1.36 15.54 3.65.33 1.57-1.79 5.01.42 5.25 2.9-.28 4.2-3 6.54-4.64 3.05-2.31 7.71-1.29 6.08 3.93-1.38 4.48-4.28 6.12-3.64 6.91 8.56.19 18.94-9.22 23.3-2.69 1.28 5.04.28 2.57 1.65 4.7-.52 5.02 4.61 3.36 5.99 6.75 2.63 3.71 1.11 6.03 1.72 8.88 2.48 3.53.32 4.09-1.07 5.99-2.54 3.74 6.93-.27 7.42 6.28-.08 7.47 3.22 13.35 1.38 14.31-1.25 1.01-1.74-.25-2.45 2.31-1.33 3.24-3.31 3.37-4.62 5.11-1.72 4.83-3.87 2.51-5.51 5.21-.43 3.8 10.74 2.99 10.67 5.8.45 1.65-1.45 4.5-1.11 4.75 1.42 3.12.19 6.88 1.17 10.77.74 2.76-1.53 4.57-2.74 5.8-2.27 4.54-1.98 5.69 1.2 8.3M-1.97-62.43c-2.09 8-14.51 4.68-14.82 0m122.07 39.45c-4.02-1.29-4.08 3.52-5.61 5.55-4.95 4.18-7.79-2.41-9.62-6.35-4.23-4.32-2.65-3.75-3.92-7.06-1.6-2.19-1.28-4.69-2.43-6.75-2.37-3.74-7.29 4.01-9.05 5.01-2.56.5-6.44 3-4.61 5.94 2.88 2.65 2.62 2.58.92 6.48-1.07 3.13-3.19 2.43-2.97 4.63 4.51 5.56 4.43 6.96 6 8.85.21.47-.03.68-.48.98-8.31 4.3-8.37 1-14.35-1.44-8.4 3.47-12.19-.52-17.33 2.52-3.55 3.26-2 5.08-2.25 7.91.6.78 2.28 1.05 2.31 2.38-1.74 3.51-4.81.48-7.42-.61-1.96-.91-4.16-.73-5.66-3.35-2.4-2.09-6.23-4.5-3.83-7.26 2.55-.44 5.3-.78 8.94-1.27 6.24-2.06 8.37-6.36 8.59-7.66.37-.75 1.64-4.1 4.1-3.89 14.94-10.18 14.87-14.04 16.45-20.46 3.38-4.28 3.91-8.7 5.91-9.97 2.8-1.83 5.16-2.55 7.3-6.49 2.47-2.77 6.53-4.51 8.92-7.14"/><path d="M32.29 57.19c.49-.3 1.33-.31 1.88 0M-91.89-50.18c1.75-.58 2.49.72 4.84 1.34 5.38 2.19 15.18-3.07 12.44 5.62-.52 1.43.24 2.4 1.38 2.29 2.8-.42 4.86-3.62 7.3-5.11 3.01-1.96 6.87.2 4.9 4.97-1.22 2.93-4.12 5.17-3.98 6.12 4.52 2.66 18.55-8.93 23.32-2.49.84.41.62 1.88.76 2.9 1.26 1.83 1.03 3.01 1.25 3.78 2.83 3.27 7.45 3.83 7.51 8.84-.05 3.77-.53 3.68 1.11 7.42-.05 1.59-5.07 4.17-2.92 5.28 12.33-.76 6.06 9.19 10 16.14.28.83-.96.71-2.54 3.51-2.35 6.06-4.65 3.19-6.11 8.61-1.61.49-5.34 1.62-5.51 3.55 2.06 3.64 11.85 1.79 12.16 6.07-.13 1.28-1.55 2.52-1.61 3.48 1.78 4.23.34 3.98.61 5.74.53 6.95 2.12 6.81-2.03 10.16-2.24 5.62-8.01.01.89 9.14M-2.44-62.43c-1.48 7.5-13.86 4.7-14.11 0m121.83 39.15c-4.98-1.41-4.04 5.13-7.06 6.37-5.32 2.04-6.79-6.02-8.16-7.63-5.24-3.44-3.78-15.91-8.82-15.28-.91 1.3-3.54 3.79-4.72 4.77-1.44 2.81-11.94 4.84-5.54 9.82.68.55 1.15 1.14.89 2.16-2.05 6.77-5.79 5.57-3.94 8.56 5.97 6.77 6.59 9.01-.83 10.43-3.07-1.04-5.22-2.68-8.33-3.63-1.46-.26-4.48 1.1-5.68 1.49-2.74-.02-8.62-.34-10.87.76-4.65 3.37-2.37 5.53-4.74 7.76C31.25 7.67 29.5.13 27.4-.39c-7.71-5.25 3.87-5.57 6.9-6.05 2.5-.97 6.04-3.31 7.69-5.4 3.43-8.82 4.6-3.95 7.32-7.97C62.54-29.23 61.35-32 63.25-38.2c2.14-3.15 4.34-8.15 5.59-9.96 6.61-4.01 5-3.58 8.26-7.44 4.21-3.72 8.23-5.54 9.04-6.83M40.15 5.39c-.34.96-2.63.98-2.27-.37.25-.47 2.22-.41 2.27.37"/><path d="M-2.81-62.43c-1.41 7.06-13.21 4.64-13.56 0m121.65 38.92c-2.9-.87-3.96.93-4.77 2.84-3.21 7.69-7.99 1.85-9.47-3.02-.9-1.85-2.66-2.17-3.48-4.62-1.03-4.73-3.22-14.35-6.45-12.91-.79.23-.66.19-.93 1.18-.61 3.31-3.33 3.26-4.91 6.15-3.98 1.49-7.84 3.82-6.4 7.51 2.33 1.31 2.93 2.54 2.59 3.64-.38 1.73-2.46 4.64-4.19 5.96C65.12-14 75.01-9.07 70.78-5.8c-5.2 2.99-9-2.63-12.63-2.47-4.3-.06-3.3.32-4.94 1.27-13.99.28-11.44.54-16.57 8.92-4.57 4.5-6.14-.57-7.7-2.52-7.29-3.52-1.02-4.06 2.7-5.16 3.71-.43 4.14-.63 6.11-2.24 6.61-3.56 4.66-5.01 6.47-7.38 13.23-9.64 17.81-13.02 19.47-22.94.96-1.58 3.17-5.01 5.04-8.89 2.02-2.27 5.6-3.52 6.22-5.06 3.46-5.53 10.47-7.98 12.06-10.16"/><path d="M-3.23-62.43c-1.12 6.63-12.64 4.57-12.92 0m121.43 38.6c-5.82-1.09-3.79 4.58-7.71 6.07-4.82 1.53-5.06-5.86-7.45-7.79-4.19-2.41-3.35-19.71-10.11-15.82-1.36 5.31-2.38 3.53-4.36 6.36-1.3 1.92-3.11 1.18-4.86 2.71-7.68 7.29 2.28 6.19.08 10.24-.8 1.62-.82 2.28-2.09 3.41-5.85 3.79.43 5.22 2.04 9.43 2.31 4.73-5.96 3.42-8.04 2.2-2.76-2.1-7.3-2.44-9.68-.8C37.09-6.7 42.49-6.23 35.73 1.73c-1.18 2.11-4.17 1.19-4.73-.36-.24-1.6.03-2.08-1.72-2.65-8.53-3.36 6.5-3.84 7.18-5.41 10.97-5.62 5.17-8.13 10.86-10.29C62.94-28.21 62.03-31.8 63.8-36.9c5.25-10.95 5.79-10.83 8.08-12.18 13.22-13.63 12.67-9.44 15.81-13.34"/><path d="M-3.57-62.43c-1.19 6.28-12.2 4.42-12.28 0m121.13 38.32c-6.31-1.95-5.95 11.72-11.84 3.74-.79-2.43-3.4-6.09-4.8-7.15-1.34-2.24-.49-5.75-2.27-8.08-1.36-8.22-6.46-7.83-6.99-5.61-.51 4.85-5.24 6.38-9.19 8.91-8.42 8.37 3.51 5.65-.16 11.28-.95 3.09-4.7 3.16-4.23 5.55.29 1.63 2.5 3.22 3.81 4.98 3.7 5.26-3.67 4.25-6.23 3.32-2.84-2.62-7.93-2.84-10.14-1.38-3.97.31-8.01.74-12.09 2.09-6.3 6.7-6.44 11.83-10.29 5.27-6.56-2.7 2.5-3.97 4.6-4.27 3.85-2.66 8.49-4.23 9.35-8.88 3.73-3.64 8.29-5.73 11.31-9.38 7.36-5.8 6.58-9.63 8.74-15.1 2.89-3.25 3.47-7.93 7.6-10.27 12.11-12.83 12-8.89 16.2-13.34"/></g></svg>